[2025-06-03 13:07:25] [INFO] Starting setup for lane 3 (IP 192.168.4.103, DISPLAY :13), attempt 1
[2025-06-03 13:07:25] [INFO] Checking network reachability for 192.168.4.103
[2025-06-03 13:07:25] [WARN] 192.168.4.103 unreachable, retrying in 5 seconds...
[2025-06-03 13:07:31] [WARN] 192.168.4.103 unreachable, retrying in 5 seconds...
[2025-06-03 13:07:36] [INFO] Generated XAUTHORITY file at /tmp/.Xauthority.jXXXog
[2025-06-03 13:07:36] [INFO] Starting Xvfb on display :13
[2025-06-03 13:07:36] [INFO] Xvfb started with PID 1400
The XKEYBOARD keymap compiler (xkbcomp) reports:
> Warning:          Could not resolve keysym XF86CameraAccessEnable
> Warning:          Could not resolve keysym XF86CameraAccessDisable
> Warning:          Could not resolve keysym XF86CameraAccessToggle
> Warning:          Could not resolve keysym XF86NextElement
> Warning:          Could not resolve keysym XF86PreviousElement
> Warning:          Could not resolve keysym XF86AutopilotEngageToggle
> Warning:          Could not resolve keysym XF86MarkWaypoint
> Warning:          Could not resolve keysym XF86Sos
> Warning:          Could not resolve keysym XF86NavChart
> Warning:          Could not resolve keysym XF86FishingChart
> Warning:          Could not resolve keysym XF86SingleRangeRadar
> Warning:          Could not resolve keysym XF86DualRangeRadar
> Warning:          Could not resolve keysym XF86RadarOverlay
> Warning:          Could not resolve keysym XF86TraditionalSonar
> Warning:          Could not resolve keysym XF86ClearvuSonar
> Warning:          Could not resolve keysym XF86SidevuSonar
> Warning:          Could not resolve keysym XF86NavInfo
Errors from xkbcomp are not fatal to the X server
[2025-06-03 13:07:38] [INFO] Generating xauth entry for :13
[2025-06-03 13:07:38] [INFO] xauth entry generated
[2025-06-03 13:07:38] [INFO] DISPLAY set to :13
[2025-06-03 13:07:38] [INFO] Starting vncviewer on 192.168.4.103 (lane 3)
[2025-06-03 13:07:38] [INFO] vncviewer started with PID 1442
The XKEYBOARD keymap compiler (xkbcomp) reports:
> Warning:          Could not resolve keysym XF86CameraAccessEnable
> Warning:          Could not resolve keysym XF86CameraAccessDisable
> Warning:          Could not resolve keysym XF86CameraAccessToggle
> Warning:          Could not resolve keysym XF86NextElement
> Warning:          Could not resolve keysym XF86PreviousElement
> Warning:          Could not resolve keysym XF86AutopilotEngageToggle
> Warning:          Could not resolve keysym XF86MarkWaypoint
> Warning:          Could not resolve keysym XF86Sos
> Warning:          Could not resolve keysym XF86NavChart
> Warning:          Could not resolve keysym XF86FishingChart
> Warning:          Could not resolve keysym XF86SingleRangeRadar
> Warning:          Could not resolve keysym XF86DualRangeRadar
> Warning:          Could not resolve keysym XF86RadarOverlay
> Warning:          Could not resolve keysym XF86TraditionalSonar
> Warning:          Could not resolve keysym XF86ClearvuSonar
> Warning:          Could not resolve keysym XF86SidevuSonar
> Warning:          Could not resolve keysym XF86NavInfo
Errors from xkbcomp are not fatal to the X server

TigerVNC Viewer v1.13.1
Built on: 2024-04-01 08:26
Copyright (C) 1999-2022 TigerVNC Team and many others (see README.rst)
See https://www.tigervnc.org for information on TigerVNC.

Tue Jun  3 13:07:38 2025
 DecodeManager: Detected 4 CPU core(s)
 DecodeManager: Creating 4 decoder thread(s)
 CConn:       Connected to host 192.168.4.103 port 5900
 CConnection: Server supports RFB protocol version 3.8
 CConnection: Using RFB protocol version 3.8
 CConnection: Choosing security type VncAuth(2)
 DesktopWindow: Adjusting window size to avoid accidental full-screen request
 CConn:       Using pixel format depth 24 (32bpp) little-endian rgb888
XRequest.131: BadWindow (invalid Window parameter) 0x200005

Tue Jun  3 13:07:41 2025
 CConn:       Throughput 15997 kbit/s - changing to quality 6
[2025-06-03 13:07:43] [INFO] Starting ffmpeg capturing :13 and streaming to /home/user/vnc-hls/hls/lane3/stream.m3u8
Input #0, x11grab, from ':13':
  Duration: N/A, start: 1748970463.459049, bitrate: 122880 kb/s
  Stream #0:0: Video: rawvideo (BGR[0] / 0x524742), bgr0, 480x800, 122880 kb/s, 10 fps, 10 tbr, 1000k tbn
[out#0/hls @ 0x596a31ec58c0] Codec AVOption sc_threshold (Scene change threshold) has not been used for any stream. The most likely reason is either wrong type (e.g. a video option with no video streams) or that it is a private option of some encoder which was not actually used for any stream.
Stream mapping:
  Stream #0:0 -> #0:0 (rawvideo (native) -> h264 (h264_vaapi))
Press [q] to stop, [?] for help
Output #0, hls, to '/home/user/vnc-hls/hls/lane3/stream.m3u8':
  Metadata:
    encoder         : Lavf60.16.100
  Stream #0:0: Video: h264 (High), vaapi(tv, progressive), 480x800, q=2-31, 1000 kb/s, 10 fps, 90k tbn
    Metadata:
      encoder         : Lavc60.31.102 h264_vaapi
frame=    0 fps=0.0 q=0.0 size=       0kB time=N/A bitrate=N/A speed=N/A    frame=    7 fps=0.0 q=-0.0 size=N/A time=00:00:00.60 bitrate=N/A speed=1.01x    frame=   13 fps= 11 q=-0.0 size=N/A time=00:00:01.20 bitrate=N/A speed=   1x    frame=   18 fps= 11 q=-0.0 size=N/A time=00:00:01.70 bitrate=N/A speed=   1x    frame=   23 fps= 10 q=-0.0 size=N/A time=00:00:02.20 bitrate=N/A speed=   1x    frame=   29 fps= 10 q=-0.0 size=N/A time=00:00:02.80 bitrate=N/A speed=   1x    frame=   35 fps= 10 q=-0.0 size=N/A time=00:00:03.40 bitrate=N/A speed=   1x    frame=   40 fps= 10 q=-0.0 size=N/A time=00:00:03.90 bitrate=N/A speed=   1x    frame=   45 fps= 10 q=-0.0 size=N/A time=00:00:04.40 bitrate=N/A speed=   1x    frame=   50 fps= 10 q=-0.0 size=N/A time=00:00:04.90 bitrate=N/A speed=   1x    frame=   56 fps= 10 q=-0.0 size=N/A time=00:00:05.50 bitrate=N/A speed=   1x    [hls @ 0x596a31ec6580] Opening '/home/user/vnc-hls/hls/lane3/segment_20250603-130743.ts' for writing
[hls @ 0x596a31ec6580] Opening '/home/user/vnc-hls/hls/lane3/stream.m3u8.tmp' for writing
frame=   62 fps= 10 q=-0.0 size=N/A time=00:00:06.10 bitrate=N/A speed=   1x    frame=   68 fps= 10 q=-0.0 size=N/A time=00:00:06.70 bitrate=N/A speed=   1x    frame=   73 fps= 10 q=-0.0 size=N/A time=00:00:07.20 bitrate=N/A speed=   1x    frame=   79 fps= 10 q=-0.0 size=N/A time=00:00:07.80 bitrate=N/A speed=   1x    frame=   84 fps= 10 q=-0.0 size=N/A time=00:00:08.30 bitrate=N/A speed=   1x    frame=   90 fps= 10 q=-0.0 size=N/A time=00:00:08.90 bitrate=N/A speed=   1x    [hls @ 0x596a31ec6580] Opening '/home/user/vnc-hls/hls/lane3/segment_20250603-130749.ts' for writing
[hls @ 0x596a31ec6580] Opening '/home/user/vnc-hls/hls/lane3/stream.m3u8.tmp' for writing
frame=   95 fps= 10 q=-0.0 size=N/A time=00:00:09.40 bitrate=N/A speed=   1x    frame=  100 fps= 10 q=-0.0 size=N/A time=00:00:09.90 bitrate=N/A speed=   1x    frame=  106 fps= 10 q=-0.0 size=N/A time=00:00:10.50 bitrate=N/A speed=   1x    frame=  111 fps= 10 q=-0.0 size=N/A time=00:00:11.00 bitrate=N/A speed=   1x    frame=  117 fps= 10 q=-0.0 size=N/A time=00:00:11.60 bitrate=N/A speed=   1x    [hls @ 0x596a31ec6580] Opening '/home/user/vnc-hls/hls/lane3/segment_20250603-130752.ts' for writing
[hls @ 0x596a31ec6580] Opening '/home/user/vnc-hls/hls/lane3/stream.m3u8.tmp' for writing
frame=  123 fps= 10 q=-0.0 size=N/A time=00:00:12.20 bitrate=N/A speed=   1x    frame=  128 fps= 10 q=-0.0 size=N/A time=00:00:12.70 bitrate=N/A speed=   1x    frame=  133 fps= 10 q=-0.0 size=N/A time=00:00:13.20 bitrate=N/A speed=   1x    frame=  138 fps= 10 q=-0.0 size=N/A time=00:00:13.70 bitrate=N/A speed=   1x    frame=  144 fps= 10 q=-0.0 size=N/A time=00:00:14.30 bitrate=N/A speed=   1x    frame=  149 fps= 10 q=-0.0 size=N/A time=00:00:14.80 bitrate=N/A speed=   1x    frame=  155 fps= 10 q=-0.0 size=N/A time=00:00:15.40 bitrate=N/A speed=   1x    frame=  161 fps= 10 q=-0.0 size=N/A time=00:00:16.00 bitrate=N/A speed=   1x    frame=  167 fps= 10 q=-0.0 size=N/A time=00:00:16.60 bitrate=N/A speed=   1x    frame=  172 fps= 10 q=-0.0 size=N/A time=00:00:17.10 bitrate=N/A speed=   1x    frame=  178 fps= 10 q=-0.0 size=N/A time=00:00:17.70 bitrate=N/A speed=   1x    [hls @ 0x596a31ec6580] Opening '/home/user/vnc-hls/hls/lane3/segment_20250603-130755.ts' for writing
[hls @ 0x596a31ec6580] Opening '/home/user/vnc-hls/hls/lane3/stream.m3u8.tmp' for writing
frame=  184 fps= 10 q=-0.0 size=N/A time=00:00:18.30 bitrate=N/A speed=   1x    frame=  189 fps= 10 q=-0.0 size=N/A time=00:00:18.80 bitrate=N/A speed=   1x    frame=  195 fps= 10 q=-0.0 size=N/A time=00:00:19.40 bitrate=N/A speed=   1x    frame=  200 fps= 10 q=-0.0 size=N/A time=00:00:19.90 bitrate=N/A speed=   1x    frame=  206 fps= 10 q=-0.0 size=N/A time=00:00:20.50 bitrate=N/A speed=   1x    [hls @ 0x596a31ec6580] Opening '/home/user/vnc-hls/hls/lane3/segment_20250603-130801.ts' for writing
[hls @ 0x596a31ec6580] Opening '/home/user/vnc-hls/hls/lane3/stream.m3u8.tmp' for writing
frame=  211 fps= 10 q=-0.0 size=N/A time=00:00:21.00 bitrate=N/A speed=   1x    frame=  216 fps= 10 q=-0.0 size=N/A time=00:00:21.50 bitrate=N/A speed=   1x    frame=  221 fps= 10 q=-0.0 size=N/A time=00:00:22.00 bitrate=N/A speed=   1x    frame=  226 fps= 10 q=-0.0 size=N/A time=00:00:22.50 bitrate=N/A speed=   1x    frame=  231 fps= 10 q=-0.0 size=N/A time=00:00:23.00 bitrate=N/A speed=   1x    frame=  237 fps= 10 q=-0.0 size=N/A time=00:00:23.60 bitrate=N/A speed=   1x    [hls @ 0x596a31ec6580] Opening '/home/user/vnc-hls/hls/lane3/segment_20250603-130804.ts' for writing
[hls @ 0x596a31ec6580] Opening '/home/user/vnc-hls/hls/lane3/stream.m3u8.tmp' for writing
frame=  242 fps= 10 q=-0.0 size=N/A time=00:00:24.10 bitrate=N/A speed=   1x    frame=  248 fps= 10 q=-0.0 size=N/A time=00:00:24.70 bitrate=N/A speed=   1x    frame=  253 fps= 10 q=-0.0 size=N/A time=00:00:25.20 bitrate=N/A speed=   1x    frame=  259 fps= 10 q=-0.0 size=N/A time=00:00:25.80 bitrate=N/A speed=   1x    frame=  265 fps= 10 q=-0.0 size=N/A time=00:00:26.40 bitrate=N/A speed=   1x    frame=  271 fps= 10 q=-0.0 size=N/A time=00:00:27.00 bitrate=N/A speed=   1x    frame=  276 fps= 10 q=-0.0 size=N/A time=00:00:27.50 bitrate=N/A speed=   1x    frame=  281 fps= 10 q=-0.0 size=N/A time=00:00:28.00 bitrate=N/A speed=   1x    frame=  286 fps= 10 q=-0.0 size=N/A time=00:00:28.50 bitrate=N/A speed=   1x    frame=  292 fps= 10 q=-0.0 size=N/A time=00:00:29.10 bitrate=N/A speed=   1x    frame=  297 fps= 10 q=-0.0 size=N/A time=00:00:29.60 bitrate=N/A speed=   1x    [hls @ 0x596a31ec6580] Opening '/home/user/vnc-hls/hls/lane3/segment_20250603-130807.ts' for writing
[hls @ 0x596a31ec6580] Opening '/home/user/vnc-hls/hls/lane3/stream.m3u8.tmp' for writing
frame=  303 fps= 10 q=-0.0 size=N/A time=00:00:30.20 bitrate=N/A speed=   1x    frame=  309 fps= 10 q=-0.0 size=N/A time=00:00:30.80 bitrate=N/A speed=   1x    frame=  314 fps= 10 q=-0.0 size=N/A time=00:00:31.30 bitrate=N/A speed=   1x    frame=  320 fps= 10 q=-0.0 size=N/A time=00:00:31.90 bitrate=N/A speed=   1x    frame=  325 fps= 10 q=-0.0 size=N/A time=00:00:32.40 bitrate=N/A speed=   1x    [hls @ 0x596a31ec6580] Opening '/home/user/vnc-hls/hls/lane3/segment_20250603-130813.ts' for writing
[hls @ 0x596a31ec6580] Opening '/home/user/vnc-hls/hls/lane3/stream.m3u8.tmp' for writing
frame=  331 fps= 10 q=-0.0 size=N/A time=00:00:33.00 bitrate=N/A speed=   1x    frame=  336 fps= 10 q=-0.0 size=N/A time=00:00:33.50 bitrate=N/A speed=   1x    frame=  341 fps= 10 q=-0.0 size=N/A time=00:00:34.00 bitrate=N/A speed=   1x    frame=  346 fps= 10 q=-0.0 size=N/A time=00:00:34.50 bitrate=N/A speed=   1x    frame=  352 fps= 10 q=-0.0 size=N/A time=00:00:35.10 bitrate=N/A speed=   1x    frame=  357 fps= 10 q=-0.0 size=N/A time=00:00:35.60 bitrate=N/A speed=   1x    [hls @ 0x596a31ec6580] Opening '/home/user/vnc-hls/hls/lane3/segment_20250603-130816.ts' for writing
[hls @ 0x596a31ec6580] Opening '/home/user/vnc-hls/hls/lane3/stream.m3u8.tmp' for writing
frame=  362 fps= 10 q=-0.0 size=N/A time=00:00:36.10 bitrate=N/A speed=   1x    frame=  368 fps= 10 q=-0.0 size=N/A time=00:00:36.70 bitrate=N/A speed=   1x    frame=  374 fps= 10 q=-0.0 size=N/A time=00:00:37.30 bitrate=N/A speed=   1x    frame=  379 fps= 10 q=-0.0 size=N/A time=00:00:37.80 bitrate=N/A speed=   1x    frame=  385 fps= 10 q=-0.0 size=N/A time=00:00:38.40 bitrate=N/A speed=   1x    frame=  391 fps= 10 q=-0.0 size=N/A time=00:00:39.00 bitrate=N/A speed=   1x    frame=  396 fps= 10 q=-0.0 size=N/A time=00:00:39.50 bitrate=N/A speed=   1x    frame=  402 fps= 10 q=-0.0 size=N/A time=00:00:40.10 bitrate=N/A speed=   1x    frame=  408 fps= 10 q=-0.0 size=N/A time=00:00:40.70 bitrate=N/A speed=   1x    frame=  413 fps= 10 q=-0.0 size=N/A time=00:00:41.20 bitrate=N/A speed=   1x    frame=  418 fps= 10 q=-0.0 size=N/A time=00:00:41.70 bitrate=N/A speed=   1x    [hls @ 0x596a31ec6580] Opening '/home/user/vnc-hls/hls/lane3/segment_20250603-130819.ts' for writing
[hls @ 0x596a31ec6580] Opening '/home/user/vnc-hls/hls/lane3/stream.m3u8.tmp' for writing
frame=  424 fps= 10 q=-0.0 size=N/A time=00:00:42.30 bitrate=N/A speed=   1x    frame=  429 fps= 10 q=-0.0 size=N/A time=00:00:42.80 bitrate=N/A speed=   1x    frame=  434 fps= 10 q=-0.0 size=N/A time=00:00:43.30 bitrate=N/A speed=   1x    frame=  440 fps= 10 q=-0.0 size=N/A time=00:00:43.90 bitrate=N/A speed=   1x    frame=  446 fps= 10 q=-0.0 size=N/A time=00:00:44.50 bitrate=N/A speed=   1x    [hls @ 0x596a31ec6580] Opening '/home/user/vnc-hls/hls/lane3/segment_20250603-130825.ts' for writing
[hls @ 0x596a31ec6580] Opening '/home/user/vnc-hls/hls/lane3/stream.m3u8.tmp' for writing
frame=  451 fps= 10 q=-0.0 size=N/A time=00:00:45.00 bitrate=N/A speed=   1x    frame=  456 fps= 10 q=-0.0 size=N/A time=00:00:45.50 bitrate=N/A speed=   1x    frame=  462 fps= 10 q=-0.0 size=N/A time=00:00:46.10 bitrate=N/A speed=   1x    frame=  468 fps= 10 q=-0.0 size=N/A time=00:00:46.70 bitrate=N/A speed=   1x    frame=  473 fps= 10 q=-0.0 size=N/A time=00:00:47.20 bitrate=N/A speed=   1x    frame=  478 fps= 10 q=-0.0 size=N/A time=00:00:47.70 bitrate=N/A speed=   1x    [hls @ 0x596a31ec6580] Opening '/home/user/vnc-hls/hls/lane3/segment_20250603-130828.ts' for writing
[hls @ 0x596a31ec6580] Opening '/home/user/vnc-hls/hls/lane3/stream.m3u8.tmp' for writing
frame=  484 fps= 10 q=-0.0 size=N/A time=00:00:48.30 bitrate=N/A speed=   1x    frame=  489 fps= 10 q=-0.0 size=N/A time=00:00:48.80 bitrate=N/A speed=   1x    frame=  495 fps= 10 q=-0.0 size=N/A time=00:00:49.40 bitrate=N/A speed=   1x    frame=  500 fps= 10 q=-0.0 size=N/A time=00:00:49.90 bitrate=N/A speed=   1x    frame=  506 fps= 10 q=-0.0 size=N/A time=00:00:50.50 bitrate=N/A speed=   1x    frame=  512 fps= 10 q=-0.0 size=N/A time=00:00:51.10 bitrate=N/A speed=   1x    frame=  518 fps= 10 q=-0.0 size=N/A time=00:00:51.70 bitrate=N/A speed=   1x    frame=  523 fps= 10 q=-0.0 size=N/A time=00:00:52.20 bitrate=N/A speed=   1x    frame=  528 fps= 10 q=-0.0 size=N/A time=00:00:52.70 bitrate=N/A speed=   1x    frame=  534 fps= 10 q=-0.0 size=N/A time=00:00:53.30 bitrate=N/A speed=   1x    frame=  540 fps= 10 q=-0.0 size=N/A time=00:00:53.90 bitrate=N/A speed=   1x    [hls @ 0x596a31ec6580] Opening '/home/user/vnc-hls/hls/lane3/segment_20250603-130831.ts' for writing
[hls @ 0x596a31ec6580] Opening '/home/user/vnc-hls/hls/lane3/stream.m3u8.tmp' for writing
frame=  546 fps= 10 q=-0.0 size=N/A time=00:00:54.50 bitrate=N/A speed=   1x    frame=  551 fps= 10 q=-0.0 size=N/A time=00:00:55.00 bitrate=N/A speed=   1x    frame=  556 fps= 10 q=-0.0 size=N/A time=00:00:55.50 bitrate=N/A speed=   1x    frame=  562 fps= 10 q=-0.0 size=N/A time=00:00:56.10 bitrate=N/A speed=   1x    frame=  568 fps= 10 q=-0.0 size=N/A time=00:00:56.70 bitrate=N/A speed=   1x    [hls @ 0x596a31ec6580] Opening '/home/user/vnc-hls/hls/lane3/segment_20250603-130837.ts' for writing
[hls @ 0x596a31ec6580] Opening '/home/user/vnc-hls/hls/lane3/stream.m3u8.tmp' for writing
frame=  574 fps= 10 q=-0.0 size=N/A time=00:00:57.30 bitrate=N/A speed=   1x    frame=  580 fps= 10 q=-0.0 size=N/A time=00:00:57.90 bitrate=N/A speed=   1x    frame=  585 fps= 10 q=-0.0 size=N/A time=00:00:58.40 bitrate=N/A speed=   1x    frame=  590 fps= 10 q=-0.0 size=N/A time=00:00:58.90 bitrate=N/A speed=   1x    frame=  596 fps= 10 q=-0.0 size=N/A time=00:00:59.50 bitrate=N/A speed=   1x    [hls @ 0x596a31ec6580] Opening '/home/user/vnc-hls/hls/lane3/segment_20250603-130840.ts' for writing
[hls @ 0x596a31ec6580] Opening '/home/user/vnc-hls/hls/lane3/stream.m3u8.tmp' for writing
frame=  601 fps= 10 q=-0.0 size=N/A time=00:01:00.00 bitrate=N/A speed=   1x    frame=  607 fps= 10 q=-0.0 size=N/A time=00:01:00.60 bitrate=N/A speed=   1x    frame=  612 fps= 10 q=-0.0 size=N/A time=00:01:01.10 bitrate=N/A speed=   1x    frame=  618 fps= 10 q=-0.0 size=N/A time=00:01:01.70 bitrate=N/A speed=   1x    frame=  623 fps= 10 q=-0.0 size=N/A time=00:01:02.20 bitrate=N/A speed=   1x    frame=  628 fps= 10 q=-0.0 size=N/A time=00:01:02.70 bitrate=N/A speed=   1x    frame=  634 fps= 10 q=-0.0 size=N/A time=00:01:03.30 bitrate=N/A speed=   1x    frame=  639 fps= 10 q=-0.0 size=N/A time=00:01:03.80 bitrate=N/A speed=   1x    frame=  645 fps= 10 q=-0.0 size=N/A time=00:01:04.40 bitrate=N/A speed=   1x    frame=  651 fps= 10 q=-0.0 size=N/A time=00:01:05.00 bitrate=N/A speed=   1x    frame=  657 fps= 10 q=-0.0 size=N/A time=00:01:05.60 bitrate=N/A speed=   1x    [hls @ 0x596a31ec6580] Opening '/home/user/vnc-hls/hls/lane3/segment_20250603-130843.ts' for writing
[hls @ 0x596a31ec6580] Opening '/home/user/vnc-hls/hls/lane3/stream.m3u8.tmp' for writing
frame=  662 fps= 10 q=-0.0 size=N/A time=00:01:06.10 bitrate=N/A speed=   1x    frame=  667 fps= 10 q=-0.0 size=N/A time=00:01:06.60 bitrate=N/A speed=   1x    frame=  673 fps= 10 q=-0.0 size=N/A time=00:01:07.20 bitrate=N/A speed=   1x    frame=  678 fps= 10 q=-0.0 size=N/A time=00:01:07.70 bitrate=N/A speed=   1x    frame=  684 fps= 10 q=-0.0 size=N/A time=00:01:08.30 bitrate=N/A speed=   1x    frame=  690 fps= 10 q=-0.0 size=N/A time=00:01:08.90 bitrate=N/A speed=   1x    [hls @ 0x596a31ec6580] Opening '/home/user/vnc-hls/hls/lane3/segment_20250603-130849.ts' for writing
[hls @ 0x596a31ec6580] Opening '/home/user/vnc-hls/hls/lane3/stream.m3u8.tmp' for writing
frame=  695 fps= 10 q=-0.0 size=N/A time=00:01:09.40 bitrate=N/A speed=   1x    frame=  700 fps= 10 q=-0.0 size=N/A time=00:01:09.90 bitrate=N/A speed=   1x    frame=  706 fps= 10 q=-0.0 size=N/A time=00:01:10.50 bitrate=N/A speed=   1x    frame=  711 fps= 10 q=-0.0 size=N/A time=00:01:11.00 bitrate=N/A speed=   1x    frame=  717 fps= 10 q=-0.0 size=N/A time=00:01:11.60 bitrate=N/A speed=   1x    [hls @ 0x596a31ec6580] Opening '/home/user/vnc-hls/hls/lane3/segment_20250603-130852.ts' for writing
[hls @ 0x596a31ec6580] Opening '/home/user/vnc-hls/hls/lane3/stream.m3u8.tmp' for writing
frame=  722 fps= 10 q=-0.0 size=N/A time=00:01:12.10 bitrate=N/A speed=   1x    frame=  728 fps= 10 q=-0.0 size=N/A time=00:01:12.70 bitrate=N/A speed=   1x    frame=  733 fps= 10 q=-0.0 size=N/A time=00:01:13.20 bitrate=N/A speed=   1x    frame=  739 fps= 10 q=-0.0 size=N/A time=00:01:13.80 bitrate=N/A speed=   1x    frame=  745 fps= 10 q=-0.0 size=N/A time=00:01:14.40 bitrate=N/A speed=   1x    frame=  750 fps= 10 q=-0.0 size=N/A time=00:01:14.90 bitrate=N/A speed=   1x    frame=  756 fps= 10 q=-0.0 size=N/A time=00:01:15.50 bitrate=N/A speed=   1x    frame=  761 fps= 10 q=-0.0 size=N/A time=00:01:16.00 bitrate=N/A speed=   1x    frame=  767 fps= 10 q=-0.0 size=N/A time=00:01:16.60 bitrate=N/A speed=   1x    frame=  772 fps= 10 q=-0.0 size=N/A time=00:01:17.10 bitrate=N/A speed=   1x    frame=  778 fps= 10 q=-0.0 size=N/A time=00:01:17.70 bitrate=N/A speed=   1x    [hls @ 0x596a31ec6580] Opening '/home/user/vnc-hls/hls/lane3/segment_20250603-130855.ts' for writing
[hls @ 0x596a31ec6580] Opening '/home/user/vnc-hls/hls/lane3/stream.m3u8.tmp' for writing
frame=  784 fps= 10 q=-0.0 size=N/A time=00:01:18.30 bitrate=N/A speed=   1x    frame=  789 fps= 10 q=-0.0 size=N/A time=00:01:18.80 bitrate=N/A speed=   1x    frame=  795 fps= 10 q=-0.0 size=N/A time=00:01:19.40 bitrate=N/A speed=   1x    frame=  800 fps= 10 q=-0.0 size=N/A time=00:01:19.90 bitrate=N/A speed=   1x    frame=  805 fps= 10 q=-0.0 size=N/A time=00:01:20.40 bitrate=N/A speed=   1x    [hls @ 0x596a31ec6580] Opening '/home/user/vnc-hls/hls/lane3/segment_20250603-130901.ts' for writing
[hls @ 0x596a31ec6580] Opening '/home/user/vnc-hls/hls/lane3/stream.m3u8.tmp' for writing
frame=  811 fps= 10 q=-0.0 size=N/A time=00:01:21.00 bitrate=N/A speed=   1x    frame=  816 fps= 10 q=-0.0 size=N/A time=00:01:21.50 bitrate=N/A speed=   1x    frame=  823 fps= 10 q=-0.0 size=N/A time=00:01:22.10 bitrate=N/A speed=   1x    frame=  827 fps= 10 q=-0.0 size=N/A time=00:01:22.60 bitrate=N/A speed=   1x    frame=  833 fps= 10 q=-0.0 size=N/A time=00:01:23.20 bitrate=N/A speed=   1x    frame=  839 fps= 10 q=-0.0 size=N/A time=00:01:23.80 bitrate=N/A speed=   1x    [hls @ 0x596a31ec6580] Opening '/home/user/vnc-hls/hls/lane3/segment_20250603-130904.ts' for writing
[hls @ 0x596a31ec6580] Opening '/home/user/vnc-hls/hls/lane3/stream.m3u8.tmp' for writing
frame=  845 fps= 10 q=-0.0 size=N/A time=00:01:24.40 bitrate=N/A speed=   1x    frame=  850 fps= 10 q=-0.0 size=N/A time=00:01:24.90 bitrate=N/A speed=   1x    frame=  855 fps= 10 q=-0.0 size=N/A time=00:01:25.40 bitrate=N/A speed=   1x    frame=  861 fps= 10 q=-0.0 size=N/A time=00:01:26.00 bitrate=N/A speed=   1x    frame=  866 fps= 10 q=-0.0 size=N/A time=00:01:26.50 bitrate=N/A speed=   1x    frame=  872 fps= 10 q=-0.0 size=N/A time=00:01:27.10 bitrate=N/A speed=   1x    frame=  878 fps= 10 q=-0.0 size=N/A time=00:01:27.70 bitrate=N/A speed=   1x    frame=  884 fps= 10 q=-0.0 size=N/A time=00:01:28.30 bitrate=N/A speed=   1x    frame=  890 fps= 10 q=-0.0 size=N/A time=00:01:28.90 bitrate=N/A speed=   1x    frame=  896 fps= 10 q=-0.0 size=N/A time=00:01:29.50 bitrate=N/A speed=   1x    [hls @ 0x596a31ec6580] Opening '/home/user/vnc-hls/hls/lane3/segment_20250603-130907.ts' for writing
[hls @ 0x596a31ec6580] Opening '/home/user/vnc-hls/hls/lane3/stream.m3u8.tmp' for writing
frame=  902 fps= 10 q=-0.0 size=N/A time=00:01:30.10 bitrate=N/A speed=   1x    frame=  908 fps= 10 q=-0.0 size=N/A time=00:01:30.70 bitrate=N/A speed=   1x    frame=  914 fps= 10 q=-0.0 size=N/A time=00:01:31.30 bitrate=N/A speed=   1x    frame=  920 fps= 10 q=-0.0 size=N/A time=00:01:31.90 bitrate=N/A speed=   1x    frame=  926 fps= 10 q=-0.0 size=N/A time=00:01:32.50 bitrate=N/A speed=   1x    [hls @ 0x596a31ec6580] Opening '/home/user/vnc-hls/hls/lane3/segment_20250603-130913.ts' for writing
[hls @ 0x596a31ec6580] Opening '/home/user/vnc-hls/hls/lane3/stream.m3u8.tmp' for writing
frame=  931 fps= 10 q=-0.0 size=N/A time=00:01:33.00 bitrate=N/A speed=   1x    frame=  937 fps= 10 q=-0.0 size=N/A time=00:01:33.60 bitrate=N/A speed=   1x    frame=  942 fps= 10 q=-0.0 size=N/A time=00:01:34.10 bitrate=N/A speed=   1x    frame=  947 fps= 10 q=-0.0 size=N/A time=00:01:34.60 bitrate=N/A speed=   1x    frame=  953 fps= 10 q=-0.0 size=N/A time=00:01:35.20 bitrate=N/A speed=   1x    frame=  959 fps= 10 q=-0.0 size=N/A time=00:01:35.80 bitrate=N/A speed=   1x    [hls @ 0x596a31ec6580] Opening '/home/user/vnc-hls/hls/lane3/segment_20250603-130916.ts' for writing
[hls @ 0x596a31ec6580] Opening '/home/user/vnc-hls/hls/lane3/stream.m3u8.tmp' for writing
frame=  964 fps= 10 q=-0.0 size=N/A time=00:01:36.30 bitrate=N/A speed=   1x    frame=  969 fps= 10 q=-0.0 size=N/A time=00:01:36.80 bitrate=N/A speed=   1x    frame=  975 fps= 10 q=-0.0 size=N/A time=00:01:37.40 bitrate=N/A speed=   1x    frame=  981 fps= 10 q=-0.0 size=N/A time=00:01:38.00 bitrate=N/A speed=   1x    frame=  987 fps= 10 q=-0.0 size=N/A time=00:01:38.60 bitrate=N/A speed=   1x    frame=  992 fps= 10 q=-0.0 size=N/A time=00:01:39.10 bitrate=N/A speed=   1x    frame=  998 fps= 10 q=-0.0 size=N/A time=00:01:39.70 bitrate=N/A speed=   1x    frame= 1003 fps= 10 q=-0.0 size=N/A time=00:01:40.20 bitrate=N/A speed=   1x    frame= 1009 fps= 10 q=-0.0 size=N/A time=00:01:40.80 bitrate=N/A speed=   1x    frame= 1015 fps= 10 q=-0.0 size=N/A time=00:01:41.40 bitrate=N/A speed=   1x    frame= 1020 fps= 10 q=-0.0 size=N/A time=00:01:41.90 bitrate=N/A speed=   1x    [hls @ 0x596a31ec6580] Opening '/home/user/vnc-hls/hls/lane3/segment_20250603-130919.ts' for writing
[hls @ 0x596a31ec6580] Opening '/home/user/vnc-hls/hls/lane3/stream.m3u8.tmp' for writing
frame= 1026 fps= 10 q=-0.0 size=N/A time=00:01:42.50 bitrate=N/A speed=   1x    frame= 1031 fps= 10 q=-0.0 size=N/A time=00:01:43.00 bitrate=N/A speed=   1x    frame= 1037 fps= 10 q=-0.0 size=N/A time=00:01:43.60 bitrate=N/A speed=   1x    frame= 1042 fps= 10 q=-0.0 size=N/A time=00:01:44.10 bitrate=N/A speed=   1x    frame= 1048 fps= 10 q=-0.0 size=N/A time=00:01:44.70 bitrate=N/A speed=   1x    [hls @ 0x596a31ec6580] Opening '/home/user/vnc-hls/hls/lane3/segment_20250603-130925.ts' for writing
[hls @ 0x596a31ec6580] Opening '/home/user/vnc-hls/hls/lane3/stream.m3u8.tmp' for writing
frame= 1054 fps= 10 q=-0.0 size=N/A time=00:01:45.30 bitrate=N/A speed=   1x    frame= 1060 fps= 10 q=-0.0 size=N/A time=00:01:45.90 bitrate=N/A speed=   1x    frame= 1066 fps= 10 q=-0.0 size=N/A time=00:01:46.50 bitrate=N/A speed=   1x    frame= 1072 fps= 10 q=-0.0 size=N/A time=00:01:47.10 bitrate=N/A speed=   1x    frame= 1077 fps= 10 q=-0.0 size=N/A time=00:01:47.60 bitrate=N/A speed=   1x    [hls @ 0x596a31ec6580] Opening '/home/user/vnc-hls/hls/lane3/segment_20250603-130928.ts' for writing
[hls @ 0x596a31ec6580] Opening '/home/user/vnc-hls/hls/lane3/stream.m3u8.tmp' for writing
frame= 1082 fps= 10 q=-0.0 size=N/A time=00:01:48.10 bitrate=N/A speed=   1x    frame= 1088 fps= 10 q=-0.0 size=N/A time=00:01:48.70 bitrate=N/A speed=   1x    frame= 1093 fps= 10 q=-0.0 size=N/A time=00:01:49.20 bitrate=N/A speed=   1x    frame= 1099 fps= 10 q=-0.0 size=N/A time=00:01:49.80 bitrate=N/A speed=   1x    frame= 1104 fps= 10 q=-0.0 size=N/A time=00:01:50.30 bitrate=N/A speed=   1x    frame= 1110 fps= 10 q=-0.0 size=N/A time=00:01:50.90 bitrate=N/A speed=   1x    frame= 1116 fps= 10 q=-0.0 size=N/A time=00:01:51.50 bitrate=N/A speed=   1x    frame= 1121 fps= 10 q=-0.0 size=N/A time=00:01:52.00 bitrate=N/A speed=   1x    frame= 1127 fps= 10 q=-0.0 size=N/A time=00:01:52.60 bitrate=N/A speed=   1x    frame= 1132 fps= 10 q=-0.0 size=N/A time=00:01:53.10 bitrate=N/A speed=   1x    frame= 1138 fps= 10 q=-0.0 size=N/A time=00:01:53.70 bitrate=N/A speed=   1x    [hls @ 0x596a31ec6580] Opening '/home/user/vnc-hls/hls/lane3/segment_20250603-130931.ts' for writing
[hls @ 0x596a31ec6580] Opening '/home/user/vnc-hls/hls/lane3/stream.m3u8.tmp' for writing
frame= 1144 fps= 10 q=-0.0 size=N/A time=00:01:54.30 bitrate=N/A speed=   1x    frame= 1150 fps= 10 q=-0.0 size=N/A time=00:01:54.90 bitrate=N/A speed=   1x    frame= 1155 fps= 10 q=-0.0 size=N/A time=00:01:55.40 bitrate=N/A speed=   1x    frame= 1161 fps= 10 q=-0.0 size=N/A time=00:01:56.00 bitrate=N/A speed=   1x    frame= 1166 fps= 10 q=-0.0 size=N/A time=00:01:56.50 bitrate=N/A speed=   1x    [hls @ 0x596a31ec6580] Opening '/home/user/vnc-hls/hls/lane3/segment_20250603-130937.ts' for writing
[hls @ 0x596a31ec6580] Opening '/home/user/vnc-hls/hls/lane3/stream.m3u8.tmp' for writing
frame= 1171 fps= 10 q=-0.0 size=N/A time=00:01:57.00 bitrate=N/A speed=   1x    frame= 1177 fps= 10 q=-0.0 size=N/A time=00:01:57.60 bitrate=N/A speed=   1x    frame= 1182 fps= 10 q=-0.0 size=N/A time=00:01:58.10 bitrate=N/A speed=   1x    frame= 1187 fps= 10 q=-0.0 size=N/A time=00:01:58.60 bitrate=N/A speed=   1x    frame= 1193 fps= 10 q=-0.0 size=N/A time=00:01:59.20 bitrate=N/A speed=   1x    frame= 1198 fps= 10 q=-0.0 size=N/A time=00:01:59.70 bitrate=N/A speed=   1x    [hls @ 0x596a31ec6580] Opening '/home/user/vnc-hls/hls/lane3/segment_20250603-130940.ts' for writing
[hls @ 0x596a31ec6580] Opening '/home/user/vnc-hls/hls/lane3/stream.m3u8.tmp' for writing
frame= 1204 fps= 10 q=-0.0 size=N/A time=00:02:00.30 bitrate=N/A speed=   1x    frame= 1209 fps= 10 q=-0.0 size=N/A time=00:02:00.80 bitrate=N/A speed=   1x    frame= 1214 fps= 10 q=-0.0 size=N/A time=00:02:01.30 bitrate=N/A speed=   1x    frame= 1219 fps= 10 q=-0.0 size=N/A time=00:02:01.80 bitrate=N/A speed=   1x    frame= 1225 fps= 10 q=-0.0 size=N/A time=00:02:02.40 bitrate=N/A speed=   1x    frame= 1230 fps= 10 q=-0.0 size=N/A time=00:02:02.90 bitrate=N/A speed=   1x    frame= 1236 fps= 10 q=-0.0 size=N/A time=00:02:03.50 bitrate=N/A speed=   1x    frame= 1242 fps= 10 q=-0.0 size=N/A time=00:02:04.10 bitrate=N/A speed=   1x    frame= 1247 fps= 10 q=-0.0 size=N/A time=00:02:04.60 bitrate=N/A speed=   1x    frame= 1253 fps= 10 q=-0.0 size=N/A time=00:02:05.20 bitrate=N/A speed=   1x    frame= 1259 fps= 10 q=-0.0 size=N/A time=00:02:05.80 bitrate=N/A speed=   1x    [hls @ 0x596a31ec6580] Opening '/home/user/vnc-hls/hls/lane3/segment_20250603-130943.ts' for writing
[hls @ 0x596a31ec6580] Opening '/home/user/vnc-hls/hls/lane3/stream.m3u8.tmp' for writing
frame= 1264 fps= 10 q=-0.0 size=N/A time=00:02:06.30 bitrate=N/A speed=   1x    frame= 1269 fps= 10 q=-0.0 size=N/A time=00:02:06.80 bitrate=N/A speed=   1x    frame= 1275 fps= 10 q=-0.0 size=N/A time=00:02:07.40 bitrate=N/A speed=   1x    frame= 1281 fps= 10 q=-0.0 size=N/A time=00:02:08.00 bitrate=N/A speed=   1x    frame= 1286 fps= 10 q=-0.0 size=N/A time=00:02:08.50 bitrate=N/A speed=   1x    [hls @ 0x596a31ec6580] Opening '/home/user/vnc-hls/hls/lane3/segment_20250603-130949.ts' for writing
[hls @ 0x596a31ec6580] Opening '/home/user/vnc-hls/hls/lane3/stream.m3u8.tmp' for writing
frame= 1292 fps= 10 q=-0.0 size=N/A time=00:02:09.10 bitrate=N/A speed=   1x    frame= 1298 fps= 10 q=-0.0 size=N/A time=00:02:09.70 bitrate=N/A speed=   1x    frame= 1304 fps= 10 q=-0.0 size=N/A time=00:02:10.30 bitrate=N/A speed=   1x    frame= 1310 fps= 10 q=-0.0 size=N/A time=00:02:10.90 bitrate=N/A speed=   1x    frame= 1315 fps= 10 q=-0.0 size=N/A time=00:02:11.40 bitrate=N/A speed=   1x    [hls @ 0x596a31ec6580] Opening '/home/user/vnc-hls/hls/lane3/segment_20250603-130952.ts' for writing
[hls @ 0x596a31ec6580] Opening '/home/user/vnc-hls/hls/lane3/stream.m3u8.tmp' for writing
frame= 1321 fps= 10 q=-0.0 size=N/A time=00:02:12.00 bitrate=N/A speed=   1x    frame= 1327 fps= 10 q=-0.0 size=N/A time=00:02:12.60 bitrate=N/A speed=   1x    frame= 1333 fps= 10 q=-0.0 size=N/A time=00:02:13.20 bitrate=N/A speed=   1x    frame= 1338 fps= 10 q=-0.0 size=N/A time=00:02:13.70 bitrate=N/A speed=   1x    frame= 1343 fps= 10 q=-0.0 size=N/A time=00:02:14.20 bitrate=N/A speed=   1x    frame= 1349 fps= 10 q=-0.0 size=N/A time=00:02:14.80 bitrate=N/A speed=   1x    frame= 1355 fps= 10 q=-0.0 size=N/A time=00:02:15.40 bitrate=N/A speed=   1x    frame= 1361 fps= 10 q=-0.0 size=N/A time=00:02:16.00 bitrate=N/A speed=   1x    frame= 1367 fps= 10 q=-0.0 size=N/A time=00:02:16.60 bitrate=N/A speed=   1x    frame= 1373 fps= 10 q=-0.0 size=N/A time=00:02:17.20 bitrate=N/A speed=   1x    frame= 1379 fps= 10 q=-0.0 size=N/A time=00:02:17.80 bitrate=N/A speed=   1x    [hls @ 0x596a31ec6580] Opening '/home/user/vnc-hls/hls/lane3/segment_20250603-130955.ts' for writing
[hls @ 0x596a31ec6580] Opening '/home/user/vnc-hls/hls/lane3/stream.m3u8.tmp' for writing
frame= 1384 fps= 10 q=-0.0 size=N/A time=00:02:18.30 bitrate=N/A speed=   1x    frame= 1390 fps= 10 q=-0.0 size=N/A time=00:02:18.90 bitrate=N/A speed=   1x    frame= 1395 fps= 10 q=-0.0 size=N/A time=00:02:19.40 bitrate=N/A speed=   1x    frame= 1400 fps= 10 q=-0.0 size=N/A time=00:02:19.90 bitrate=N/A speed=   1x    frame= 1405 fps= 10 q=-0.0 size=N/A time=00:02:20.40 bitrate=N/A speed=   1x    [hls @ 0x596a31ec6580] Opening '/home/user/vnc-hls/hls/lane3/segment_20250603-131001.ts' for writing
[hls @ 0x596a31ec6580] Opening '/home/user/vnc-hls/hls/lane3/stream.m3u8.tmp' for writing
frame= 1411 fps= 10 q=-0.0 size=N/A time=00:02:21.00 bitrate=N/A speed=   1x    frame= 1417 fps= 10 q=-0.0 size=N/A time=00:02:21.60 bitrate=N/A speed=   1x    frame= 1422 fps= 10 q=-0.0 size=N/A time=00:02:22.10 bitrate=N/A speed=   1x    frame= 1427 fps= 10 q=-0.0 size=N/A time=00:02:22.60 bitrate=N/A speed=   1x    frame= 1433 fps= 10 q=-0.0 size=N/A time=00:02:23.20 bitrate=N/A speed=   1x    frame= 1438 fps= 10 q=-0.0 size=N/A time=00:02:23.70 bitrate=N/A speed=   1x    [hls @ 0x596a31ec6580] Opening '/home/user/vnc-hls/hls/lane3/segment_20250603-131004.ts' for writing
[hls @ 0x596a31ec6580] Opening '/home/user/vnc-hls/hls/lane3/stream.m3u8.tmp' for writing
frame= 1444 fps= 10 q=-0.0 size=N/A time=00:02:24.30 bitrate=N/A speed=   1x    frame= 1449 fps= 10 q=-0.0 size=N/A time=00:02:24.80 bitrate=N/A speed=   1x    frame= 1455 fps= 10 q=-0.0 size=N/A time=00:02:25.40 bitrate=N/A speed=   1x    frame= 1460 fps= 10 q=-0.0 size=N/A time=00:02:25.90 bitrate=N/A speed=   1x    frame= 1465 fps= 10 q=-0.0 size=N/A time=00:02:26.40 bitrate=N/A speed=   1x    frame= 1470 fps= 10 q=-0.0 size=N/A time=00:02:26.90 bitrate=N/A speed=   1x    frame= 1476 fps= 10 q=-0.0 size=N/A time=00:02:27.50 bitrate=N/A speed=   1x    frame= 1481 fps= 10 q=-0.0 size=N/A time=00:02:28.00 bitrate=N/A speed=   1x    frame= 1487 fps= 10 q=-0.0 size=N/A time=00:02:28.60 bitrate=N/A speed=   1x    frame= 1493 fps= 10 q=-0.0 size=N/A time=00:02:29.20 bitrate=N/A speed=   1x    frame= 1499 fps= 10 q=-0.0 size=N/A time=00:02:29.80 bitrate=N/A speed=   1x    [hls @ 0x596a31ec6580] Opening '/home/user/vnc-hls/hls/lane3/segment_20250603-131007.ts' for writing
[hls @ 0x596a31ec6580] Opening '/home/user/vnc-hls/hls/lane3/stream.m3u8.tmp' for writing
frame= 1505 fps= 10 q=-0.0 size=N/A time=00:02:30.40 bitrate=N/A speed=   1x    frame= 1510 fps= 10 q=-0.0 size=N/A time=00:02:30.90 bitrate=N/A speed=   1x    frame= 1515 fps= 10 q=-0.0 size=N/A time=00:02:31.40 bitrate=N/A speed=   1x    frame= 1520 fps= 10 q=-0.0 size=N/A time=00:02:31.90 bitrate=N/A speed=   1x    frame= 1526 fps= 10 q=-0.0 size=N/A time=00:02:32.50 bitrate=N/A speed=   1x    [hls @ 0x596a31ec6580] Opening '/home/user/vnc-hls/hls/lane3/segment_20250603-131013.ts' for writing
[hls @ 0x596a31ec6580] Opening '/home/user/vnc-hls/hls/lane3/stream.m3u8.tmp' for writing
frame= 1531 fps= 10 q=-0.0 size=N/A time=00:02:33.00 bitrate=N/A speed=   1x    frame= 1537 fps= 10 q=-0.0 size=N/A time=00:02:33.60 bitrate=N/A speed=   1x    frame= 1543 fps= 10 q=-0.0 size=N/A time=00:02:34.20 bitrate=N/A speed=   1x    frame= 1548 fps= 10 q=-0.0 size=N/A time=00:02:34.70 bitrate=N/A speed=   1x    frame= 1554 fps= 10 q=-0.0 size=N/A time=00:02:35.30 bitrate=N/A speed=   1x    frame= 1560 fps= 10 q=-0.0 size=N/A time=00:02:35.90 bitrate=N/A speed=   1x    [hls @ 0x596a31ec6580] Opening '/home/user/vnc-hls/hls/lane3/segment_20250603-131016.ts' for writing
[hls @ 0x596a31ec6580] Opening '/home/user/vnc-hls/hls/lane3/stream.m3u8.tmp' for writing
frame= 1566 fps= 10 q=-0.0 size=N/A time=00:02:36.50 bitrate=N/A speed=   1x    frame= 1572 fps= 10 q=-0.0 size=N/A time=00:02:37.10 bitrate=N/A speed=   1x    frame= 1577 fps= 10 q=-0.0 size=N/A time=00:02:37.60 bitrate=N/A speed=   1x    frame= 1583 fps= 10 q=-0.0 size=N/A time=00:02:38.20 bitrate=N/A speed=   1x    frame= 1589 fps= 10 q=-0.0 size=N/A time=00:02:38.80 bitrate=N/A speed=   1x    frame= 1595 fps= 10 q=-0.0 size=N/A time=00:02:39.40 bitrate=N/A speed=   1x    frame= 1600 fps= 10 q=-0.0 size=N/A time=00:02:39.90 bitrate=N/A speed=   1x    frame= 1606 fps= 10 q=-0.0 size=N/A time=00:02:40.50 bitrate=N/A speed=   1x    frame= 1612 fps= 10 q=-0.0 size=N/A time=00:02:41.10 bitrate=N/A speed=   1x    frame= 1618 fps= 10 q=-0.0 size=N/A time=00:02:41.70 bitrate=N/A speed=   1x    [hls @ 0x596a31ec6580] Opening '/home/user/vnc-hls/hls/lane3/segment_20250603-131019.ts' for writing
[hls @ 0x596a31ec6580] Opening '/home/user/vnc-hls/hls/lane3/stream.m3u8.tmp' for writing
frame= 1623 fps= 10 q=-0.0 size=N/A time=00:02:42.20 bitrate=N/A speed=   1x    frame= 1629 fps= 10 q=-0.0 size=N/A time=00:02:42.80 bitrate=N/A speed=   1x    frame= 1634 fps= 10 q=-0.0 size=N/A time=00:02:43.30 bitrate=N/A speed=   1x    frame= 1640 fps= 10 q=-0.0 size=N/A time=00:02:43.90 bitrate=N/A speed=   1x    frame= 1645 fps= 10 q=-0.0 size=N/A time=00:02:44.40 bitrate=N/A speed=   1x    [hls @ 0x596a31ec6580] Opening '/home/user/vnc-hls/hls/lane3/segment_20250603-131025.ts' for writing
[hls @ 0x596a31ec6580] Opening '/home/user/vnc-hls/hls/lane3/stream.m3u8.tmp' for writing
frame= 1651 fps= 10 q=-0.0 size=N/A time=00:02:45.00 bitrate=N/A speed=   1x    frame= 1657 fps= 10 q=-0.0 size=N/A time=00:02:45.60 bitrate=N/A speed=   1x    frame= 1663 fps= 10 q=-0.0 size=N/A time=00:02:46.20 bitrate=N/A speed=   1x    frame= 1668 fps= 10 q=-0.0 size=N/A time=00:02:46.70 bitrate=N/A speed=   1x    frame= 1673 fps= 10 q=-0.0 size=N/A time=00:02:47.20 bitrate=N/A speed=   1x    frame= 1678 fps= 10 q=-0.0 size=N/A time=00:02:47.70 bitrate=N/A speed=   1x    [hls @ 0x596a31ec6580] Opening '/home/user/vnc-hls/hls/lane3/segment_20250603-131028.ts' for writing
[hls @ 0x596a31ec6580] Opening '/home/user/vnc-hls/hls/lane3/stream.m3u8.tmp' for writing
frame= 1683 fps= 10 q=-0.0 size=N/A time=00:02:48.20 bitrate=N/A speed=   1x    frame= 1689 fps= 10 q=-0.0 size=N/A time=00:02:48.80 bitrate=N/A speed=   1x    frame= 1694 fps= 10 q=-0.0 size=N/A time=00:02:49.30 bitrate=N/A speed=   1x    frame= 1700 fps= 10 q=-0.0 size=N/A time=00:02:49.90 bitrate=N/A speed=   1x    frame= 1706 fps= 10 q=-0.0 size=N/A time=00:02:50.50 bitrate=N/A speed=   1x    frame= 1712 fps= 10 q=-0.0 size=N/A time=00:02:51.10 bitrate=N/A speed=   1x    frame= 1717 fps= 10 q=-0.0 size=N/A time=00:02:51.60 bitrate=N/A speed=   1x    frame= 1723 fps= 10 q=-0.0 size=N/A time=00:02:52.20 bitrate=N/A speed=   1x    frame= 1729 fps= 10 q=-0.0 size=N/A time=00:02:52.80 bitrate=N/A speed=   1x    frame= 1735 fps= 10 q=-0.0 size=N/A time=00:02:53.40 bitrate=N/A speed=   1x    [hls @ 0x596a31ec6580] Opening '/home/user/vnc-hls/hls/lane3/segment_20250603-131031.ts' for writing
[hls @ 0x596a31ec6580] Opening '/home/user/vnc-hls/hls/lane3/stream.m3u8.tmp' for writing
frame= 1741 fps= 10 q=-0.0 size=N/A time=00:02:54.00 bitrate=N/A speed=   1x    frame= 1747 fps= 10 q=-0.0 size=N/A time=00:02:54.60 bitrate=N/A speed=   1x    frame= 1753 fps= 10 q=-0.0 size=N/A time=00:02:55.20 bitrate=N/A speed=   1x    frame= 1758 fps= 10 q=-0.0 size=N/A time=00:02:55.70 bitrate=N/A speed=   1x    frame= 1763 fps= 10 q=-0.0 size=N/A time=00:02:56.20 bitrate=N/A speed=   1x    frame= 1769 fps= 10 q=-0.0 size=N/A time=00:02:56.80 bitrate=N/A speed=   1x    [hls @ 0x596a31ec6580] Opening '/home/user/vnc-hls/hls/lane3/segment_20250603-131037.ts' for writing
[hls @ 0x596a31ec6580] Opening '/home/user/vnc-hls/hls/lane3/stream.m3u8.tmp' for writing
frame= 1774 fps= 10 q=-0.0 size=N/A time=00:02:57.30 bitrate=N/A speed=   1x    frame= 1779 fps= 10 q=-0.0 size=N/A time=00:02:57.80 bitrate=N/A speed=   1x    frame= 1785 fps= 10 q=-0.0 size=N/A time=00:02:58.40 bitrate=N/A speed=   1x    frame= 1791 fps= 10 q=-0.0 size=N/A time=00:02:59.00 bitrate=N/A speed=   1x    frame= 1797 fps= 10 q=-0.0 size=N/A time=00:02:59.60 bitrate=N/A speed=   1x    [hls @ 0x596a31ec6580] Opening '/home/user/vnc-hls/hls/lane3/segment_20250603-131040.ts' for writing
[hls @ 0x596a31ec6580] Opening '/home/user/vnc-hls/hls/lane3/stream.m3u8.tmp' for writing
frame= 1803 fps= 10 q=-0.0 size=N/A time=00:03:00.20 bitrate=N/A speed=   1x    frame= 1808 fps= 10 q=-0.0 size=N/A time=00:03:00.70 bitrate=N/A speed=   1x    frame= 1814 fps= 10 q=-0.0 size=N/A time=00:03:01.30 bitrate=N/A speed=   1x    frame= 1820 fps= 10 q=-0.0 size=N/A time=00:03:01.90 bitrate=N/A speed=   1x    frame= 1825 fps= 10 q=-0.0 size=N/A time=00:03:02.40 bitrate=N/A speed=   1x    frame= 1831 fps= 10 q=-0.0 size=N/A time=00:03:03.00 bitrate=N/A speed=   1x    frame= 1836 fps= 10 q=-0.0 size=N/A time=00:03:03.50 bitrate=N/A speed=   1x    frame= 1842 fps= 10 q=-0.0 size=N/A time=00:03:04.10 bitrate=N/A speed=   1x    frame= 1847 fps= 10 q=-0.0 size=N/A time=00:03:04.60 bitrate=N/A speed=   1x    frame= 1852 fps= 10 q=-0.0 size=N/A time=00:03:05.10 bitrate=N/A speed=   1x    frame= 1858 fps= 10 q=-0.0 size=N/A time=00:03:05.70 bitrate=N/A speed=   1x    [hls @ 0x596a31ec6580] Opening '/home/user/vnc-hls/hls/lane3/segment_20250603-131043.ts' for writing
[hls @ 0x596a31ec6580] Opening '/home/user/vnc-hls/hls/lane3/stream.m3u8.tmp' for writing
frame= 1864 fps= 10 q=-0.0 size=N/A time=00:03:06.30 bitrate=N/A speed=   1x    frame= 1870 fps= 10 q=-0.0 size=N/A time=00:03:06.90 bitrate=N/A speed=   1x    frame= 1876 fps= 10 q=-0.0 size=N/A time=00:03:07.50 bitrate=N/A speed=   1x    frame= 1882 fps= 10 q=-0.0 size=N/A time=00:03:08.10 bitrate=N/A speed=   1x    frame= 1887 fps= 10 q=-0.0 size=N/A time=00:03:08.60 bitrate=N/A speed=   1x    [hls @ 0x596a31ec6580] Opening '/home/user/vnc-hls/hls/lane3/segment_20250603-131049.ts' for writing
[hls @ 0x596a31ec6580] Opening '/home/user/vnc-hls/hls/lane3/stream.m3u8.tmp' for writing
frame= 1893 fps= 10 q=-0.0 size=N/A time=00:03:09.20 bitrate=N/A speed=   1x    frame= 1898 fps= 10 q=-0.0 size=N/A time=00:03:09.70 bitrate=N/A speed=   1x    frame= 1904 fps= 10 q=-0.0 size=N/A time=00:03:10.30 bitrate=N/A speed=   1x    frame= 1909 fps= 10 q=-0.0 size=N/A time=00:03:10.80 bitrate=N/A speed=   1x    frame= 1915 fps= 10 q=-0.0 size=N/A time=00:03:11.40 bitrate=N/A speed=   1x    frame= 1920 fps= 10 q=-0.0 size=N/A time=00:03:11.90 bitrate=N/A speed=   1x    [hls @ 0x596a31ec6580] Opening '/home/user/vnc-hls/hls/lane3/segment_20250603-131052.ts' for writing
[hls @ 0x596a31ec6580] Opening '/home/user/vnc-hls/hls/lane3/stream.m3u8.tmp' for writing
frame= 1926 fps= 10 q=-0.0 size=N/A time=00:03:12.50 bitrate=N/A speed=   1x    frame= 1932 fps= 10 q=-0.0 size=N/A time=00:03:13.10 bitrate=N/A speed=   1x    frame= 1937 fps= 10 q=-0.0 size=N/A time=00:03:13.60 bitrate=N/A speed=   1x    frame= 1943 fps= 10 q=-0.0 size=N/A time=00:03:14.20 bitrate=N/A speed=   1x    frame= 1949 fps= 10 q=-0.0 size=N/A time=00:03:14.80 bitrate=N/A speed=   1x    frame= 1955 fps= 10 q=-0.0 size=N/A time=00:03:15.40 bitrate=N/A speed=   1x    frame= 1961 fps= 10 q=-0.0 size=N/A time=00:03:16.00 bitrate=N/A speed=   1x    frame= 1967 fps= 10 q=-0.0 size=N/A time=00:03:16.60 bitrate=N/A speed=   1x    frame= 1972 fps= 10 q=-0.0 size=N/A time=00:03:17.10 bitrate=N/A speed=   1x    frame= 1977 fps= 10 q=-0.0 size=N/A time=00:03:17.60 bitrate=N/A speed=   1x    [hls @ 0x596a31ec6580] Opening '/home/user/vnc-hls/hls/lane3/segment_20250603-131055.ts' for writing
[hls @ 0x596a31ec6580] Opening '/home/user/vnc-hls/hls/lane3/stream.m3u8.tmp' for writing
frame= 1983 fps= 10 q=-0.0 size=N/A time=00:03:18.20 bitrate=N/A speed=   1x    frame= 1988 fps= 10 q=-0.0 size=N/A time=00:03:18.70 bitrate=N/A speed=   1x    frame= 1993 fps= 10 q=-0.0 size=N/A time=00:03:19.20 bitrate=N/A speed=   1x    frame= 1999 fps= 10 q=-0.0 size=N/A time=00:03:19.80 bitrate=N/A speed=   1x    frame= 2005 fps= 10 q=-0.0 size=N/A time=00:03:20.40 bitrate=N/A speed=   1x    [hls @ 0x596a31ec6580] Opening '/home/user/vnc-hls/hls/lane3/segment_20250603-131101.ts' for writing
[hls @ 0x596a31ec6580] Opening '/home/user/vnc-hls/hls/lane3/stream.m3u8.tmp' for writing
frame= 2011 fps= 10 q=-0.0 size=N/A time=00:03:21.00 bitrate=N/A speed=   1x    frame= 2016 fps= 10 q=-0.0 size=N/A time=00:03:21.50 bitrate=N/A speed=   1x    frame= 2021 fps= 10 q=-0.0 size=N/A time=00:03:22.00 bitrate=N/A speed=   1x    frame= 2027 fps= 10 q=-0.0 size=N/A time=00:03:22.60 bitrate=N/A speed=   1x    frame= 2032 fps= 10 q=-0.0 size=N/A time=00:03:23.10 bitrate=N/A speed=   1x    frame= 2037 fps= 10 q=-0.0 size=N/A time=00:03:23.60 bitrate=N/A speed=   1x    [hls @ 0x596a31ec6580] Opening '/home/user/vnc-hls/hls/lane3/segment_20250603-131104.ts' for writing
[hls @ 0x596a31ec6580] Opening '/home/user/vnc-hls/hls/lane3/stream.m3u8.tmp' for writing
frame= 2043 fps= 10 q=-0.0 size=N/A time=00:03:24.20 bitrate=N/A speed=   1x    frame= 2049 fps= 10 q=-0.0 size=N/A time=00:03:24.80 bitrate=N/A speed=   1x    frame= 2054 fps= 10 q=-0.0 size=N/A time=00:03:25.30 bitrate=N/A speed=   1x    frame= 2059 fps= 10 q=-0.0 size=N/A time=00:03:25.80 bitrate=N/A speed=   1x    frame= 2065 fps= 10 q=-0.0 size=N/A time=00:03:26.40 bitrate=N/A speed=   1x    frame= 2071 fps= 10 q=-0.0 size=N/A time=00:03:27.00 bitrate=N/A speed=   1x    frame= 2077 fps= 10 q=-0.0 size=N/A time=00:03:27.60 bitrate=N/A speed=   1x    frame= 2083 fps= 10 q=-0.0 size=N/A time=00:03:28.20 bitrate=N/A speed=   1x    frame= 2088 fps= 10 q=-0.0 size=N/A time=00:03:28.70 bitrate=N/A speed=   1x    frame= 2094 fps= 10 q=-0.0 size=N/A time=00:03:29.30 bitrate=N/A speed=   1x    frame= 2100 fps= 10 q=-0.0 size=N/A time=00:03:29.90 bitrate=N/A speed=   1x    [hls @ 0x596a31ec6580] Opening '/home/user/vnc-hls/hls/lane3/segment_20250603-131107.ts' for writing
[hls @ 0x596a31ec6580] Opening '/home/user/vnc-hls/hls/lane3/stream.m3u8.tmp' for writing
frame= 2106 fps= 10 q=-0.0 size=N/A time=00:03:30.50 bitrate=N/A speed=   1x    frame= 2111 fps= 10 q=-0.0 size=N/A time=00:03:31.00 bitrate=N/A speed=   1x    frame= 2117 fps= 10 q=-0.0 size=N/A time=00:03:31.60 bitrate=N/A speed=   1x    frame= 2123 fps= 10 q=-0.0 size=N/A time=00:03:32.20 bitrate=N/A speed=   1x    frame= 2129 fps= 10 q=-0.0 size=N/A time=00:03:32.80 bitrate=N/A speed=   1x    [hls @ 0x596a31ec6580] Opening '/home/user/vnc-hls/hls/lane3/segment_20250603-131113.ts' for writing
[hls @ 0x596a31ec6580] Opening '/home/user/vnc-hls/hls/lane3/stream.m3u8.tmp' for writing
frame= 2134 fps= 10 q=-0.0 size=N/A time=00:03:33.30 bitrate=N/A speed=   1x    frame= 2140 fps= 10 q=-0.0 size=N/A time=00:03:33.90 bitrate=N/A speed=   1x    frame= 2146 fps= 10 q=-0.0 size=N/A time=00:03:34.50 bitrate=N/A speed=   1x    frame= 2151 fps= 10 q=-0.0 size=N/A time=00:03:35.00 bitrate=N/A speed=   1x    frame= 2157 fps= 10 q=-0.0 size=N/A time=00:03:35.60 bitrate=N/A speed=   1x    [hls @ 0x596a31ec6580] Opening '/home/user/vnc-hls/hls/lane3/segment_20250603-131116.ts' for writing
[hls @ 0x596a31ec6580] Opening '/home/user/vnc-hls/hls/lane3/stream.m3u8.tmp' for writing
frame= 2163 fps= 10 q=-0.0 size=N/A time=00:03:36.20 bitrate=N/A speed=   1x    frame= 2168 fps= 10 q=-0.0 size=N/A time=00:03:36.70 bitrate=N/A speed=   1x    frame= 2174 fps= 10 q=-0.0 size=N/A time=00:03:37.30 bitrate=N/A speed=   1x    frame= 2180 fps= 10 q=-0.0 size=N/A time=00:03:37.90 bitrate=N/A speed=   1x    frame= 2185 fps= 10 q=-0.0 size=N/A time=00:03:38.40 bitrate=N/A speed=   1x    frame= 2190 fps= 10 q=-0.0 size=N/A time=00:03:38.90 bitrate=N/A speed=   1x    frame= 2196 fps= 10 q=-0.0 size=N/A time=00:03:39.50 bitrate=N/A speed=   1x    frame= 2201 fps= 10 q=-0.0 size=N/A time=00:03:40.00 bitrate=N/A speed=   1x    frame= 2207 fps= 10 q=-0.0 size=N/A time=00:03:40.60 bitrate=N/A speed=   1x    frame= 2213 fps= 10 q=-0.0 size=N/A time=00:03:41.20 bitrate=N/A speed=   1x    frame= 2219 fps= 10 q=-0.0 size=N/A time=00:03:41.80 bitrate=N/A speed=   1x    [hls @ 0x596a31ec6580] Opening '/home/user/vnc-hls/hls/lane3/segment_20250603-131119.ts' for writing
[hls @ 0x596a31ec6580] Opening '/home/user/vnc-hls/hls/lane3/stream.m3u8.tmp' for writing
frame= 2224 fps= 10 q=-0.0 size=N/A time=00:03:42.30 bitrate=N/A speed=   1x    frame= 2229 fps= 10 q=-0.0 size=N/A time=00:03:42.80 bitrate=N/A speed=   1x    frame= 2235 fps= 10 q=-0.0 size=N/A time=00:03:43.40 bitrate=N/A speed=   1x    frame= 2241 fps= 10 q=-0.0 size=N/A time=00:03:44.00 bitrate=N/A speed=   1x    frame= 2246 fps= 10 q=-0.0 size=N/A time=00:03:44.50 bitrate=N/A speed=   1x    [hls @ 0x596a31ec6580] Opening '/home/user/vnc-hls/hls/lane3/segment_20250603-131125.ts' for writing
[hls @ 0x596a31ec6580] Opening '/home/user/vnc-hls/hls/lane3/stream.m3u8.tmp' for writing
frame= 2251 fps= 10 q=-0.0 size=N/A time=00:03:45.00 bitrate=N/A speed=   1x    frame= 2256 fps= 10 q=-0.0 size=N/A time=00:03:45.50 bitrate=N/A speed=   1x    frame= 2262 fps= 10 q=-0.0 size=N/A time=00:03:46.10 bitrate=N/A speed=   1x    frame= 2267 fps= 10 q=-0.0 size=N/A time=00:03:46.60 bitrate=N/A speed=   1x    frame= 2272 fps= 10 q=-0.0 size=N/A time=00:03:47.10 bitrate=N/A speed=   1x    frame= 2278 fps= 10 q=-0.0 size=N/A time=00:03:47.70 bitrate=N/A speed=   1x    [hls @ 0x596a31ec6580] Opening '/home/user/vnc-hls/hls/lane3/segment_20250603-131128.ts' for writing
[hls @ 0x596a31ec6580] Opening '/home/user/vnc-hls/hls/lane3/stream.m3u8.tmp' for writing
frame= 2284 fps= 10 q=-0.0 size=N/A time=00:03:48.30 bitrate=N/A speed=   1x    frame= 2289 fps= 10 q=-0.0 size=N/A time=00:03:48.80 bitrate=N/A speed=   1x    frame= 2295 fps= 10 q=-0.0 size=N/A time=00:03:49.40 bitrate=N/A speed=   1x    frame= 2301 fps= 10 q=-0.0 size=N/A time=00:03:50.00 bitrate=N/A speed=   1x    frame= 2307 fps= 10 q=-0.0 size=N/A time=00:03:50.60 bitrate=N/A speed=   1x    frame= 2312 fps= 10 q=-0.0 size=N/A time=00:03:51.10 bitrate=N/A speed=   1x    frame= 2317 fps= 10 q=-0.0 size=N/A time=00:03:51.60 bitrate=N/A speed=   1x    frame= 2322 fps= 10 q=-0.0 size=N/A time=00:03:52.10 bitrate=N/A speed=   1x    frame= 2328 fps= 10 q=-0.0 size=N/A time=00:03:52.70 bitrate=N/A speed=   1x    frame= 2333 fps= 10 q=-0.0 size=N/A time=00:03:53.20 bitrate=N/A speed=   1x    frame= 2339 fps= 10 q=-0.0 size=N/A time=00:03:53.80 bitrate=N/A speed=   1x    [hls @ 0x596a31ec6580] Opening '/home/user/vnc-hls/hls/lane3/segment_20250603-131131.ts' for writing
[hls @ 0x596a31ec6580] Opening '/home/user/vnc-hls/hls/lane3/stream.m3u8.tmp' for writing
frame= 2344 fps= 10 q=-0.0 size=N/A time=00:03:54.30 bitrate=N/A speed=   1x    frame= 2349 fps= 10 q=-0.0 size=N/A time=00:03:54.80 bitrate=N/A speed=   1x    frame= 2355 fps= 10 q=-0.0 size=N/A time=00:03:55.40 bitrate=N/A speed=   1x    frame= 2361 fps= 10 q=-0.0 size=N/A time=00:03:56.00 bitrate=N/A speed=   1x    frame= 2367 fps= 10 q=-0.0 size=N/A time=00:03:56.60 bitrate=N/A speed=   1x    [hls @ 0x596a31ec6580] Opening '/home/user/vnc-hls/hls/lane3/segment_20250603-131137.ts' for writing
[hls @ 0x596a31ec6580] Opening '/home/user/vnc-hls/hls/lane3/stream.m3u8.tmp' for writing
frame= 2373 fps= 10 q=-0.0 size=N/A time=00:03:57.20 bitrate=N/A speed=   1x    frame= 2379 fps= 10 q=-0.0 size=N/A time=00:03:57.80 bitrate=N/A speed=   1x    frame= 2384 fps= 10 q=-0.0 size=N/A time=00:03:58.30 bitrate=N/A speed=   1x    frame= 2390 fps= 10 q=-0.0 size=N/A time=00:03:58.90 bitrate=N/A speed=   1x    frame= 2396 fps= 10 q=-0.0 size=N/A time=00:03:59.50 bitrate=N/A speed=   1x    [hls @ 0x596a31ec6580] Opening '/home/user/vnc-hls/hls/lane3/segment_20250603-131140.ts' for writing
[hls @ 0x596a31ec6580] Opening '/home/user/vnc-hls/hls/lane3/stream.m3u8.tmp' for writing
frame= 2401 fps= 10 q=-0.0 size=N/A time=00:04:00.00 bitrate=N/A speed=   1x    frame= 2407 fps= 10 q=-0.0 size=N/A time=00:04:00.60 bitrate=N/A speed=   1x    frame= 2413 fps= 10 q=-0.0 size=N/A time=00:04:01.20 bitrate=N/A speed=   1x    frame= 2419 fps= 10 q=-0.0 size=N/A time=00:04:01.80 bitrate=N/A speed=   1x    frame= 2425 fps= 10 q=-0.0 size=N/A time=00:04:02.40 bitrate=N/A speed=   1x    frame= 2430 fps= 10 q=-0.0 size=N/A time=00:04:02.90 bitrate=N/A speed=   1x    frame= 2436 fps= 10 q=-0.0 size=N/A time=00:04:03.50 bitrate=N/A speed=   1x    frame= 2442 fps= 10 q=-0.0 size=N/A time=00:04:04.10 bitrate=N/A speed=   1x    frame= 2447 fps= 10 q=-0.0 size=N/A time=00:04:04.60 bitrate=N/A speed=   1x    frame= 2453 fps= 10 q=-0.0 size=N/A time=00:04:05.20 bitrate=N/A speed=   1x    frame= 2458 fps= 10 q=-0.0 size=N/A time=00:04:05.70 bitrate=N/A speed=   1x    [hls @ 0x596a31ec6580] Opening '/home/user/vnc-hls/hls/lane3/segment_20250603-131143.ts' for writing
[hls @ 0x596a31ec6580] Opening '/home/user/vnc-hls/hls/lane3/stream.m3u8.tmp' for writing
frame= 2463 fps= 10 q=-0.0 size=N/A time=00:04:06.20 bitrate=N/A speed=   1x    frame= 2469 fps= 10 q=-0.0 size=N/A time=00:04:06.80 bitrate=N/A speed=   1x    frame= 2474 fps= 10 q=-0.0 size=N/A time=00:04:07.30 bitrate=N/A speed=   1x    frame= 2479 fps= 10 q=-0.0 size=N/A time=00:04:07.80 bitrate=N/A speed=   1x    frame= 2485 fps= 10 q=-0.0 size=N/A time=00:04:08.40 bitrate=N/A speed=   1x    [hls @ 0x596a31ec6580] Opening '/home/user/vnc-hls/hls/lane3/segment_20250603-131149.ts' for writing
[hls @ 0x596a31ec6580] Opening '/home/user/vnc-hls/hls/lane3/stream.m3u8.tmp' for writing
frame= 2491 fps= 10 q=-0.0 size=N/A time=00:04:09.00 bitrate=N/A speed=   1x    frame= 2497 fps= 10 q=-0.0 size=N/A time=00:04:09.60 bitrate=N/A speed=   1x    frame= 2503 fps= 10 q=-0.0 size=N/A time=00:04:10.20 bitrate=N/A speed=   1x    frame= 2509 fps= 10 q=-0.0 size=N/A time=00:04:10.80 bitrate=N/A speed=   1x    frame= 2515 fps= 10 q=-0.0 size=N/A time=00:04:11.40 bitrate=N/A speed=   1x    frame= 2520 fps= 10 q=-0.0 size=N/A time=00:04:11.90 bitrate=N/A speed=   1x    [hls @ 0x596a31ec6580] Opening '/home/user/vnc-hls/hls/lane3/segment_20250603-131152.ts' for writing
[hls @ 0x596a31ec6580] Opening '/home/user/vnc-hls/hls/lane3/stream.m3u8.tmp' for writing
frame= 2526 fps= 10 q=-0.0 size=N/A time=00:04:12.50 bitrate=N/A speed=   1x    frame= 2532 fps= 10 q=-0.0 size=N/A time=00:04:13.10 bitrate=N/A speed=   1x    frame= 2538 fps= 10 q=-0.0 size=N/A time=00:04:13.70 bitrate=N/A speed=   1x    frame= 2544 fps= 10 q=-0.0 size=N/A time=00:04:14.30 bitrate=N/A speed=   1x    frame= 2549 fps= 10 q=-0.0 size=N/A time=00:04:14.80 bitrate=N/A speed=   1x    frame= 2555 fps= 10 q=-0.0 size=N/A time=00:04:15.40 bitrate=N/A speed=   1x    frame= 2560 fps= 10 q=-0.0 size=N/A time=00:04:15.90 bitrate=N/A speed=   1x    frame= 2566 fps= 10 q=-0.0 size=N/A time=00:04:16.50 bitrate=N/A speed=   1x    frame= 2571 fps= 10 q=-0.0 size=N/A time=00:04:17.00 bitrate=N/A speed=   1x    frame= 2577 fps= 10 q=-0.0 size=N/A time=00:04:17.60 bitrate=N/A speed=   1x    [hls @ 0x596a31ec6580] Opening '/home/user/vnc-hls/hls/lane3/segment_20250603-131155.ts' for writing
[hls @ 0x596a31ec6580] Opening '/home/user/vnc-hls/hls/lane3/stream.m3u8.tmp' for writing
frame= 2582 fps= 10 q=-0.0 size=N/A time=00:04:18.10 bitrate=N/A speed=   1x    frame= 2588 fps= 10 q=-0.0 size=N/A time=00:04:18.70 bitrate=N/A speed=   1x    frame= 2593 fps= 10 q=-0.0 size=N/A time=00:04:19.20 bitrate=N/A speed=   1x    frame= 2599 fps= 10 q=-0.0 size=N/A time=00:04:19.80 bitrate=N/A speed=   1x    frame= 2605 fps= 10 q=-0.0 size=N/A time=00:04:20.40 bitrate=N/A speed=   1x    [hls @ 0x596a31ec6580] Opening '/home/user/vnc-hls/hls/lane3/segment_20250603-131201.ts' for writing
[hls @ 0x596a31ec6580] Opening '/home/user/vnc-hls/hls/lane3/stream.m3u8.tmp' for writing
frame= 2611 fps= 10 q=-0.0 size=N/A time=00:04:21.00 bitrate=N/A speed=   1x    frame= 2616 fps= 10 q=-0.0 size=N/A time=00:04:21.50 bitrate=N/A speed=   1x    frame= 2622 fps= 10 q=-0.0 size=N/A time=00:04:22.10 bitrate=N/A speed=   1x    frame= 2627 fps= 10 q=-0.0 size=N/A time=00:04:22.60 bitrate=N/A speed=   1x    frame= 2633 fps= 10 q=-0.0 size=N/A time=00:04:23.20 bitrate=N/A speed=   1x    frame= 2638 fps= 10 q=-0.0 size=N/A time=00:04:23.70 bitrate=N/A speed=   1x    [hls @ 0x596a31ec6580] Opening '/home/user/vnc-hls/hls/lane3/segment_20250603-131204.ts' for writing
[hls @ 0x596a31ec6580] Opening '/home/user/vnc-hls/hls/lane3/stream.m3u8.tmp' for writing
frame= 2643 fps= 10 q=-0.0 size=N/A time=00:04:24.20 bitrate=N/A speed=   1x    frame= 2649 fps= 10 q=-0.0 size=N/A time=00:04:24.80 bitrate=N/A speed=   1x    frame= 2654 fps= 10 q=-0.0 size=N/A time=00:04:25.30 bitrate=N/A speed=   1x    frame= 2659 fps= 10 q=-0.0 size=N/A time=00:04:25.80 bitrate=N/A speed=   1x    frame= 2665 fps= 10 q=-0.0 size=N/A time=00:04:26.40 bitrate=N/A speed=   1x    frame= 2671 fps= 10 q=-0.0 size=N/A time=00:04:27.00 bitrate=N/A speed=   1x    frame= 2677 fps= 10 q=-0.0 size=N/A time=00:04:27.60 bitrate=N/A speed=   1x    frame= 2682 fps= 10 q=-0.0 size=N/A time=00:04:28.10 bitrate=N/A speed=   1x    frame= 2687 fps= 10 q=-0.0 size=N/A time=00:04:28.60 bitrate=N/A speed=   1x    frame= 2693 fps= 10 q=-0.0 size=N/A time=00:04:29.20 bitrate=N/A speed=   1x    frame= 2699 fps= 10 q=-0.0 size=N/A time=00:04:29.80 bitrate=N/A speed=   1x    [hls @ 0x596a31ec6580] Opening '/home/user/vnc-hls/hls/lane3/segment_20250603-131207.ts' for writing
[hls @ 0x596a31ec6580] Opening '/home/user/vnc-hls/hls/lane3/stream.m3u8.tmp' for writing
frame= 2705 fps= 10 q=-0.0 size=N/A time=00:04:30.40 bitrate=N/A speed=   1x    frame= 2710 fps= 10 q=-0.0 size=N/A time=00:04:30.90 bitrate=N/A speed=   1x    frame= 2716 fps= 10 q=-0.0 size=N/A time=00:04:31.50 bitrate=N/A speed=   1x    frame= 2722 fps= 10 q=-0.0 size=N/A time=00:04:32.10 bitrate=N/A speed=   1x    frame= 2728 fps= 10 q=-0.0 size=N/A time=00:04:32.70 bitrate=N/A speed=   1x    [hls @ 0x596a31ec6580] Opening '/home/user/vnc-hls/hls/lane3/segment_20250603-131213.ts' for writing
[hls @ 0x596a31ec6580] Opening '/home/user/vnc-hls/hls/lane3/stream.m3u8.tmp' for writing
frame= 2734 fps= 10 q=-0.0 size=N/A time=00:04:33.30 bitrate=N/A speed=   1x    frame= 2740 fps= 10 q=-0.0 size=N/A time=00:04:33.90 bitrate=N/A speed=   1x    frame= 2746 fps= 10 q=-0.0 size=N/A time=00:04:34.50 bitrate=N/A speed=   1x    frame= 2752 fps= 10 q=-0.0 size=N/A time=00:04:35.10 bitrate=N/A speed=   1x    frame= 2758 fps= 10 q=-0.0 size=N/A time=00:04:35.70 bitrate=N/A speed=   1x    [hls @ 0x596a31ec6580] Opening '/home/user/vnc-hls/hls/lane3/segment_20250603-131216.ts' for writing
[hls @ 0x596a31ec6580] Opening '/home/user/vnc-hls/hls/lane3/stream.m3u8.tmp' for writing
frame= 2764 fps= 10 q=-0.0 size=N/A time=00:04:36.30 bitrate=N/A speed=   1x    frame= 2770 fps= 10 q=-0.0 size=N/A time=00:04:36.90 bitrate=N/A speed=   1x    frame= 2775 fps= 10 q=-0.0 size=N/A time=00:04:37.40 bitrate=N/A speed=   1x    frame= 2780 fps= 10 q=-0.0 size=N/A time=00:04:37.90 bitrate=N/A speed=   1x    frame= 2786 fps= 10 q=-0.0 size=N/A time=00:04:38.50 bitrate=N/A speed=   1x    frame= 2792 fps= 10 q=-0.0 size=N/A time=00:04:39.10 bitrate=N/A speed=   1x    frame= 2798 fps= 10 q=-0.0 size=N/A time=00:04:39.70 bitrate=N/A speed=   1x    frame= 2804 fps= 10 q=-0.0 size=N/A time=00:04:40.30 bitrate=N/A speed=   1x    frame= 2809 fps= 10 q=-0.0 size=N/A time=00:04:40.80 bitrate=N/A speed=   1x    frame= 2815 fps= 10 q=-0.0 size=N/A time=00:04:41.40 bitrate=N/A speed=   1x    [hls @ 0x596a31ec6580] Opening '/home/user/vnc-hls/hls/lane3/segment_20250603-131219.ts' for writing
[hls @ 0x596a31ec6580] Opening '/home/user/vnc-hls/hls/lane3/stream.m3u8.tmp' for writing
frame= 2821 fps= 10 q=-0.0 size=N/A time=00:04:42.00 bitrate=N/A speed=   1x    frame= 2827 fps= 10 q=-0.0 size=N/A time=00:04:42.60 bitrate=N/A speed=   1x    frame= 2832 fps= 10 q=-0.0 size=N/A time=00:04:43.10 bitrate=N/A speed=   1x    frame= 2838 fps= 10 q=-0.0 size=N/A time=00:04:43.70 bitrate=N/A speed=   1x    frame= 2843 fps= 10 q=-0.0 size=N/A time=00:04:44.20 bitrate=N/A speed=   1x    frame= 2849 fps= 10 q=-0.0 size=N/A time=00:04:44.80 bitrate=N/A speed=   1x    [hls @ 0x596a31ec6580] Opening '/home/user/vnc-hls/hls/lane3/segment_20250603-131225.ts' for writing
[hls @ 0x596a31ec6580] Opening '/home/user/vnc-hls/hls/lane3/stream.m3u8.tmp' for writing
frame= 2854 fps= 10 q=-0.0 size=N/A time=00:04:45.30 bitrate=N/A speed=   1x    frame= 2859 fps= 10 q=-0.0 size=N/A time=00:04:45.80 bitrate=N/A speed=   1x    frame= 2864 fps= 10 q=-0.0 size=N/A time=00:04:46.30 bitrate=N/A speed=   1x    frame= 2869 fps= 10 q=-0.0 size=N/A time=00:04:46.80 bitrate=N/A speed=   1x    frame= 2875 fps= 10 q=-0.0 size=N/A time=00:04:47.40 bitrate=N/A speed=   1x    frame= 2880 fps= 10 q=-0.0 size=N/A time=00:04:47.90 bitrate=N/A speed=   1x    [hls @ 0x596a31ec6580] Opening '/home/user/vnc-hls/hls/lane3/segment_20250603-131228.ts' for writing
[hls @ 0x596a31ec6580] Opening '/home/user/vnc-hls/hls/lane3/stream.m3u8.tmp' for writing
frame= 2885 fps= 10 q=-0.0 size=N/A time=00:04:48.40 bitrate=N/A speed=   1x    frame= 2890 fps= 10 q=-0.0 size=N/A time=00:04:48.90 bitrate=N/A speed=   1x    frame= 2896 fps= 10 q=-0.0 size=N/A time=00:04:49.50 bitrate=N/A speed=   1x    frame= 2902 fps= 10 q=-0.0 size=N/A time=00:04:50.10 bitrate=N/A speed=   1x    frame= 2907 fps= 10 q=-0.0 size=N/A time=00:04:50.60 bitrate=N/A speed=   1x    frame= 2912 fps= 10 q=-0.0 size=N/A time=00:04:51.10 bitrate=N/A speed=   1x    frame= 2917 fps= 10 q=-0.0 size=N/A time=00:04:51.60 bitrate=N/A speed=   1x    frame= 2923 fps= 10 q=-0.0 size=N/A time=00:04:52.20 bitrate=N/A speed=   1x    frame= 2929 fps= 10 q=-0.0 size=N/A time=00:04:52.80 bitrate=N/A speed=   1x    frame= 2934 fps= 10 q=-0.0 size=N/A time=00:04:53.30 bitrate=N/A speed=   1x    frame= 2940 fps= 10 q=-0.0 size=N/A time=00:04:53.90 bitrate=N/A speed=   1x    [hls @ 0x596a31ec6580] Opening '/home/user/vnc-hls/hls/lane3/segment_20250603-131231.ts' for writing
[hls @ 0x596a31ec6580] Opening '/home/user/vnc-hls/hls/lane3/stream.m3u8.tmp' for writing
frame= 2946 fps= 10 q=-0.0 size=N/A time=00:04:54.50 bitrate=N/A speed=   1x    frame= 2951 fps= 10 q=-0.0 size=N/A time=00:04:55.00 bitrate=N/A speed=   1x    frame= 2956 fps= 10 q=-0.0 size=N/A time=00:04:55.50 bitrate=N/A speed=   1x    frame= 2961 fps= 10 q=-0.0 size=N/A time=00:04:56.00 bitrate=N/A speed=   1x    frame= 2967 fps= 10 q=-0.0 size=N/A time=00:04:56.60 bitrate=N/A speed=   1x    [hls @ 0x596a31ec6580] Opening '/home/user/vnc-hls/hls/lane3/segment_20250603-131237.ts' for writing
[hls @ 0x596a31ec6580] Opening '/home/user/vnc-hls/hls/lane3/stream.m3u8.tmp' for writing
frame= 2972 fps= 10 q=-0.0 size=N/A time=00:04:57.10 bitrate=N/A speed=   1x    frame= 2978 fps= 10 q=-0.0 size=N/A time=00:04:57.70 bitrate=N/A speed=   1x    frame= 2984 fps= 10 q=-0.0 size=N/A time=00:04:58.30 bitrate=N/A speed=   1x    frame= 2989 fps= 10 q=-0.0 size=N/A time=00:04:58.80 bitrate=N/A speed=   1x    frame= 2995 fps= 10 q=-0.0 size=N/A time=00:04:59.40 bitrate=N/A speed=   1x    frame= 3000 fps= 10 q=-0.0 size=N/A time=00:04:59.90 bitrate=N/A speed=   1x    [hls @ 0x596a31ec6580] Opening '/home/user/vnc-hls/hls/lane3/segment_20250603-131240.ts' for writing
[hls @ 0x596a31ec6580] Opening '/home/user/vnc-hls/hls/lane3/stream.m3u8.tmp' for writing
frame= 3006 fps= 10 q=-0.0 size=N/A time=00:05:00.50 bitrate=N/A speed=   1x    frame= 3012 fps= 10 q=-0.0 size=N/A time=00:05:01.10 bitrate=N/A speed=   1x    frame= 3018 fps= 10 q=-0.0 size=N/A time=00:05:01.70 bitrate=N/A speed=   1x    frame= 3023 fps= 10 q=-0.0 size=N/A time=00:05:02.20 bitrate=N/A speed=   1x    frame= 3029 fps= 10 q=-0.0 size=N/A time=00:05:02.80 bitrate=N/A speed=   1x    frame= 3035 fps= 10 q=-0.0 size=N/A time=00:05:03.40 bitrate=N/A speed=   1x    frame= 3040 fps= 10 q=-0.0 size=N/A time=00:05:03.90 bitrate=N/A speed=   1x    frame= 3045 fps= 10 q=-0.0 size=N/A time=00:05:04.40 bitrate=N/A speed=   1x    frame= 3050 fps= 10 q=-0.0 size=N/A time=00:05:04.90 bitrate=N/A speed=   1x    frame= 3056 fps= 10 q=-0.0 size=N/A time=00:05:05.50 bitrate=N/A speed=   1x    [hls @ 0x596a31ec6580] Opening '/home/user/vnc-hls/hls/lane3/segment_20250603-131243.ts' for writing
[hls @ 0x596a31ec6580] Opening '/home/user/vnc-hls/hls/lane3/stream.m3u8.tmp' for writing
frame= 3062 fps= 10 q=-0.0 size=N/A time=00:05:06.10 bitrate=N/A speed=   1x    frame= 3068 fps= 10 q=-0.0 size=N/A time=00:05:06.70 bitrate=N/A speed=   1x    frame= 3074 fps= 10 q=-0.0 size=N/A time=00:05:07.30 bitrate=N/A speed=   1x    frame= 3080 fps= 10 q=-0.0 size=N/A time=00:05:07.90 bitrate=N/A speed=   1x    frame= 3085 fps= 10 q=-0.0 size=N/A time=00:05:08.40 bitrate=N/A speed=   1x    frame= 3090 fps= 10 q=-0.0 size=N/A time=00:05:08.90 bitrate=N/A speed=   1x    [hls @ 0x596a31ec6580] Opening '/home/user/vnc-hls/hls/lane3/segment_20250603-131249.ts' for writing
[hls @ 0x596a31ec6580] Opening '/home/user/vnc-hls/hls/lane3/stream.m3u8.tmp' for writing
frame= 3096 fps= 10 q=-0.0 size=N/A time=00:05:09.50 bitrate=N/A speed=   1x    frame= 3101 fps= 10 q=-0.0 size=N/A time=00:05:10.00 bitrate=N/A speed=   1x    frame= 3107 fps= 10 q=-0.0 size=N/A time=00:05:10.60 bitrate=N/A speed=   1x    frame= 3112 fps= 10 q=-0.0 size=N/A time=00:05:11.10 bitrate=N/A speed=   1x    frame= 3118 fps= 10 q=-0.0 size=N/A time=00:05:11.70 bitrate=N/A speed=   1x    [hls @ 0x596a31ec6580] Opening '/home/user/vnc-hls/hls/lane3/segment_20250603-131252.ts' for writing
[hls @ 0x596a31ec6580] Opening '/home/user/vnc-hls/hls/lane3/stream.m3u8.tmp' for writing
frame= 3123 fps= 10 q=-0.0 size=N/A time=00:05:12.20 bitrate=N/A speed=   1x    frame= 3128 fps= 10 q=-0.0 size=N/A time=00:05:12.70 bitrate=N/A speed=   1x    frame= 3134 fps= 10 q=-0.0 size=N/A time=00:05:13.30 bitrate=N/A speed=   1x    frame= 3140 fps= 10 q=-0.0 size=N/A time=00:05:13.90 bitrate=N/A speed=   1x    frame= 3145 fps= 10 q=-0.0 size=N/A time=00:05:14.40 bitrate=N/A speed=   1x    frame= 3151 fps= 10 q=-0.0 size=N/A time=00:05:15.00 bitrate=N/A speed=   1x    frame= 3157 fps= 10 q=-0.0 size=N/A time=00:05:15.60 bitrate=N/A speed=   1x    frame= 3162 fps= 10 q=-0.0 size=N/A time=00:05:16.10 bitrate=N/A speed=   1x    frame= 3168 fps= 10 q=-0.0 size=N/A time=00:05:16.70 bitrate=N/A speed=   1x    frame= 3173 fps= 10 q=-0.0 size=N/A time=00:05:17.20 bitrate=N/A speed=   1x    frame= 3179 fps= 10 q=-0.0 size=N/A time=00:05:17.80 bitrate=N/A speed=   1x    [hls @ 0x596a31ec6580] Opening '/home/user/vnc-hls/hls/lane3/segment_20250603-131255.ts' for writing
[hls @ 0x596a31ec6580] Opening '/home/user/vnc-hls/hls/lane3/stream.m3u8.tmp' for writing
frame= 3184 fps= 10 q=-0.0 size=N/A time=00:05:18.30 bitrate=N/A speed=   1x    frame= 3190 fps= 10 q=-0.0 size=N/A time=00:05:18.90 bitrate=N/A speed=   1x    frame= 3195 fps= 10 q=-0.0 size=N/A time=00:05:19.40 bitrate=N/A speed=   1x    frame= 3201 fps= 10 q=-0.0 size=N/A time=00:05:20.00 bitrate=N/A speed=   1x    frame= 3207 fps= 10 q=-0.0 size=N/A time=00:05:20.60 bitrate=N/A speed=   1x    [hls @ 0x596a31ec6580] Opening '/home/user/vnc-hls/hls/lane3/segment_20250603-131301.ts' for writing
[hls @ 0x596a31ec6580] Opening '/home/user/vnc-hls/hls/lane3/stream.m3u8.tmp' for writing
frame= 3212 fps= 10 q=-0.0 size=N/A time=00:05:21.10 bitrate=N/A speed=   1x    frame= 3218 fps= 10 q=-0.0 size=N/A time=00:05:21.70 bitrate=N/A speed=   1x    frame= 3223 fps= 10 q=-0.0 size=N/A time=00:05:22.20 bitrate=N/A speed=   1x    